<svg xmlns="http://www.w3.org/2000/svg" width="20" height="16"><path fill="#B1D2CE" fill-rule="nonzero" d="M10.84 14.07c.92-.53 1.66-.98 2.23-1.36.57-.38 1.14-.88 1.73-1.5.55-.58.97-1.2 1.26-1.84.29-.64.5-1.47.62-2.48h-1.41c-1.21 0-2.16-.3-2.86-.89-.69-.6-1.04-1.47-1.04-2.62 0-.82.31-1.59.92-2.3C12.91.36 13.75 0 14.82 0c1.68 0 2.88.55 3.6 1.65.72 1.1 1.08 2.55 1.08 4.34 0 1.27-.27 2.42-.82 3.46-.55 1.04-1.21 1.97-1.99 2.79a14 14 0 0 1-2.55 2.13c-.9.58-1.65 1.06-2.26 1.43l-1.04-1.73zM0 14.07c.92-.53 1.66-.98 2.23-1.36.57-.38 1.14-.88 1.73-1.5.57-.6.99-1.22 1.27-1.85.28-.63.48-1.46.6-2.47H4.42c-1.21 0-2.16-.3-2.86-.89C.87 5.4.53 4.52.53 3.37c0-.82.31-1.59.92-2.3C2.07.36 2.91 0 3.98 0c1.68 0 2.88.55 3.6 1.65C8.31 2.75 8.67 4.2 8.67 6c0 1.27-.27 2.42-.82 3.46-.55 1.04-1.21 1.97-1.99 2.79a14 14 0 0 1-2.55 2.13c-.9.58-1.65 1.06-2.26 1.43L0 14.07z"/></svg>