<svg xmlns="http://www.w3.org/2000/svg" width="96" height="96"><g fill="none" fill-rule="evenodd"><circle cx="47.67" cy="47.67" r="47.67" fill="#E52C2C"/><path stroke="#FFF" stroke-linecap="round" stroke-width="4" d="M58.22 70.99H36.24c-2.56 0-4.64-2.08-4.64-4.64v-18.8c0-2.56 2.08-4.64 4.64-4.64h21.98c2.56 0 4.64 2.08 4.64 4.64v18.81c0 2.55-2.07 4.63-4.64 4.63zM57.2 33.18c0-5.5-4.46-9.96-9.96-9.96-5.5 0-9.96 4.46-9.96 9.96M57.2 33.92v8.97M37.27 33.18v8.96M47.23 55.95v5.16"/><circle cx="47.23" cy="53.62" r="1.44" stroke="#FFF" stroke-linecap="round" stroke-width="4"/></g></svg>