<svg xmlns="http://www.w3.org/2000/svg" width="20" height="16"><path fill="#B1D2CE" fill-rule="nonzero" d="M8.67 1.75c-.92.53-1.66.98-2.22 1.36-.57.38-1.15.88-1.73 1.5-.55.59-.97 1.2-1.26 1.84-.3.65-.5 1.47-.62 2.49h1.41c1.21 0 2.16.3 2.86.89.69.6 1.04 1.47 1.04 2.62 0 .82-.31 1.59-.92 2.3-.62.71-1.46 1.07-2.53 1.07-1.68 0-2.88-.55-3.6-1.65C.36 13.07 0 11.62 0 9.83 0 8.56.27 7.4.82 6.36c.55-1.04 1.21-1.97 1.99-2.79a14 14 0 0 1 2.55-2.13C6.26.85 7.01.37 7.62 0l1.05 1.75zm10.84 0c-.92.53-1.66.98-2.23 1.36-.57.38-1.14.88-1.73 1.5-.57.6-.99 1.22-1.27 1.85-.28.64-.48 1.46-.6 2.48h1.41c1.21 0 2.16.3 2.86.89.69.6 1.04 1.47 1.04 2.62 0 .82-.31 1.59-.92 2.3-.62.71-1.46 1.07-2.53 1.07-1.68 0-2.88-.55-3.6-1.65-.72-1.1-1.08-2.55-1.08-4.34 0-1.27.27-2.42.82-3.46.55-1.04 1.21-1.97 1.99-2.79a14 14 0 0 1 2.55-2.13c.9-.58 1.65-1.06 2.26-1.43l1.03 1.73z"/></svg>