<svg xmlns="http://www.w3.org/2000/svg" width="404" height="381"><path fill="#D0E4E2" fill-rule="evenodd" d="M367.36 350.01c-8.32-4.48-15.66-6.35-23.41-5.65-16.64 1.5-30.87 4.4-37.55 10.85-7.88 7.62-23.35 12.01-35.51 17.76-6.35 3.01-17.74 4.14-28.34 5.02-31.41 2.59-64.65 3.61-101.69.98-9.62-.68-19.51-1.53-29.5-2.97-38.26-5.51-67.36-15.85-87.32-33.64-29.33-26.13-32.15-47.76-6.72-64.22 11.54-7.47 28.6-11.53 51.72-12.47 6.93-.28 13.57-.83 20.76-.86 25.67-.1 46.5-3.58 66.8-7.33 19.94-3.68 33.29-10.46 40.7-19.51 14.02-17.12 29.24-33.88 39.3-52.22 3.87-7.05 7.95-13.98 10.03-21.5 4.58-16.6.76-34.77-3.12-52.96-2.73-12.83-5.59-25.66-1.23-37.12 1.81-4.76 2.29-9.86 3.67-14.73 3.11-10.92 1.35-22.75-1.63-34.84a49.562 49.562 0 0 1-1.41-13.36c.13-4.45 4.17-7.72 10.89-10.04 7.52-2.6 19.52-1.05 28.71 4.53 8.32 5.05 15.98 10.48 21.35 15.73 17.35 16.96 31.84 33.78 37.62 50.07 2.54 7.16 8.15 14.75 10.43 21.87 3.37 10.51 5.76 20.89 7.17 31.08 1.19 8.6 3.46 17.28 7.95 26.39 12.11 24.56 22.72 48.92 26.17 72.28.6 4.07 2.4 8.36 4.03 12.6 9.73 25.29 8.4 48.35-.15 69.99-3.75 9.49-7.18 19.05-10.68 28.6-2.9 7.99-4.81 9.67-19.04 15.67z"/></svg>